#!OML:ASF Y:\EmotionMaleHayes\Project 1\Capture day 1\Session 1\Male1.ASF
:FULLY-SPECIFIED
:DEGREES
549
root 46.2076 17.1494 -0.0550158 848.639 86.9378 850.098
lowerback 6.93456 2.01714 -5.28635
upperback 2.59567 2.39577 -1.16099
thorax -1.36259 1.21774 1.57034
lowerneck -20.1859 0.977091 2.68241
upperneck 23.5987 1.43919 -2.62392
head 11.0152 0.646028 -1.16756
rclavicle 2.39039e-014 -2.14687e-014
rhumerus -40.6025 10.1462 -90.0976
rradius 40.8481
rwrist -8.58643
rhand -11.2395 -30.7978
rfingers 7.12502
rthumb 14.7898 -60.2501
lclavicle 2.39039e-014 -2.14687e-014
lhumerus -38.6882 -18.8513 92.3713
lradius 47.2369
lwrist 4.90276
lhand -17.4522 -24.1586
lfingers 7.12502
lthumb 8.79896 5.63799
rfemur 6.05229 -2.42362 12.1906
rtibia 5.44929
rfoot -12.8982 0.30843
rtoes 3.40601
lfemur 13.6099 -2.40791 -19.7491
ltibia -0.237004
lfoot -13.1398 7.62706
ltoes -3.55875
550
root 46.2039 17.1518 -0.0503945 854.857 87.2969 856.242
lowerback 6.96374 2.00387 -4.86501
upperback 2.57306 2.40145 -1.02495
thorax -1.39297 1.22067 1.47374
lowerneck -20.3318 1.00664 2.6217
upperneck 23.7313 1.47925 -2.54229
head 11.0929 0.668727 -1.12218
rclavicle 3.8763e-015 -2.18663e-014
rhumerus -40.639 9.68278 -89.9512
rradius 40.7102
rwrist -8.07874
rhand -11.0404 -30.8501
rfingers 7.12502
rthumb 14.9816 -60.2882
lclavicle 3.8763e-015 -2.18663e-014
lhumerus -38.7223 -19.0114 92.5292
lradius 47.0444
lwrist 4.60385
lhand -17.5972 -24.5146
lfingers 7.12502
lthumb 8.65909 5.28786
rfemur 5.88068 -2.11671 12.899
rtibia 5.55301
rfoot -13.1345 0.0749613
rtoes 8.55555
lfemur 13.4809 -2.4028 -19.0881
ltibia -0.185688
lfoot -13.1123 7.5964
ltoes -3.28197
551
root 46.2033 17.1507 -0.0489477 851.958 87.1624 853.299
lowerback 6.97215 2.03218 -5.05521
upperback 2.60034 2.42827 -1.09003
thorax -1.37529 1.23395 1.51065
lowerneck -20.5459 0.99591 2.54726
upperneck 23.8615 1.47392 -2.49672
head 11.1818 0.663925 -1.09454
rclavicle -1.76421e-014 2.54444e-014
rhumerus -40.5687 9.39309 -89.8741
rradius 40.4018
rwrist -7.88667
rhand -10.9107 -30.8364
rfingers 7.12502
rthumb 15.1065 -60.2651
lclavicle -1.76421e-014 2.54444e-014
lhumerus -38.6521 -19.2011 92.6609
lradius 46.7857
lwrist 4.32632
lhand -17.6949 -24.9361
lfingers 7.12502
lthumb 8.56481 4.87019
rfemur 5.81111 -2.04132 12.6804
rtibia 5.57844
rfoot -13.2834 -0.0338569
rtoes 8.71346
lfemur 13.4143 -2.41324 -19.3134
ltibia -0.171507
lfoot -13.2378 7.62201
ltoes -2.43965
552
root 46.2059 17.1485 -0.0498723 847.368 86.8679 848.728
lowerback 6.98194 2.07516 -5.40713
upperback 2.6728 2.46776 -1.19938
thorax -1.31652 1.25266 1.59177
lowerneck -20.6212 0.947371 2.57302
upperneck 23.8383 1.41484 -2.57858
head 11.1866 0.627579 -1.13798
rclavicle -4.82053e-015 4.77083e-015
rhumerus -40.422 9.27573 -89.8242
rradius 40.038
rwrist -7.96204
rhand -11.057 -30.7234
rfingers 7.12502
rthumb 14.9656 -60.1627
lclavicle -4.82053e-015 4.77083e-015
lhumerus -38.5258 -19.3808 92.8118
lradius 46.4832
lwrist 3.98433
lhand -17.7066 -24.8978
lfingers 7.12502
lthumb 8.55351 4.90899
rfemur 5.88491 -2.09523 12.1807
rtibia 5.56035
rfoot -13.3223 0.00727977
rtoes 8.47335
lfemur 13.4433 -2.45384 -19.8099
ltibia -0.17716
lfoot -13.3762 7.68419
ltoes -1.42255
553
root 46.2107 17.1503 -0.052129 850.539 87.0697 851.858
lowerback 6.94633 2.06505 -5.13272
upperback 2.67289 2.47367 -1.12664
thorax -1.29001 1.25482 1.51474
lowerneck -20.613 0.791427 2.40188
upperneck 23.8947 1.20104 -2.38771
head 11.1972 0.540306 -1.07289
rclavicle 1.37658e-014 1.03368e-014
rhumerus -40.3782 9.30358 -89.8099
rradius 39.7836
rwrist -7.96998
rhand -11.1333 -30.5984
rfingers 7.12502
rthumb 14.8921 -60.0431
lclavicle 1.37658e-014 1.03368e-014
lhumerus -38.4853 -19.5117 92.985
lradius 46.1353
lwrist 3.60754
lhand -17.8414 -24.7119
lfingers 7.12502
lthumb 8.42336 5.10012
rfemur 5.88421 -2.08074 12.5047
rtibia 5.44442
rfoot -13.153 -0.0127786
rtoes 8.54869
lfemur 13.4335 -2.51041 -19.5274
ltibia -0.183007
lfoot -13.4054 7.75878
ltoes -1.23384
554
root 46.2239 17.147 -0.0614471 846.487 86.747 847.817
lowerback 6.96419 2.05194 -5.45053
upperback 2.62715 2.43212 -1.24566
thorax -1.35117 1.23618 1.57095
lowerneck -20.6786 0.793632 2.27758
upperneck 24.0294 1.21899 -2.27437
head 11.2595 0.552604 -1.00833
rclavicle -2.43511e-014 1.90833e-014
rhumerus -40.4696 9.27512 -89.8136
rradius 39.5073
rwrist -7.71826
rhand -11.0193 -30.4983
rfingers 7.12502
rthumb 15.0019 -59.9349
lclavicle -2.43511e-014 1.90833e-014
lhumerus -38.6301 -19.5765 93.1575
lradius 45.8119
lwrist 3.16637
lhand -17.9872 -24.8965
lfingers 7.12502
lthumb 8.28269 4.92113
rfemur 6.0201 -2.59218 11.8323
rtibia 5.41911
rfoot -12.9989 0.526838
rtoes 10.0254
lfemur 13.5696 -2.53999 -20.1341
ltibia -0.267076
lfoot -13.426 7.83305
ltoes -0.906611
